<svg width="409" height="577" viewBox="0 0 409 577" fill="none" xmlns="http://www.w3.org/2000/svg">
<g clip-path="url(#clip0_14_15)">
<rect width="409" height="577" fill="url(#paint0_linear_14_15)"/>
<path d="M149.532 319.279C112.865 327.612 96.0317 340.279 99.0317 357.279C102.032 374.279 98.865 393.612 89.5317 415.279C80.1984 436.945 62.365 458.779 36.0317 480.779C9.69836 502.779 -16.135 504.945 -41.4683 487.279C-66.8016 469.612 -68.135 439.445 -45.4683 396.779C-22.8016 354.112 -34.635 328.445 -80.9683 319.779C-127.302 311.112 -149.968 291.445 -148.968 260.779C-147.968 230.112 -134.635 206.112 -108.968 188.779C-83.3016 171.445 -55.3016 170.279 -24.9683 185.279C5.36503 200.279 29.365 202.445 47.0317 191.779C64.6984 181.112 88.1983 172.945 117.532 167.279C146.865 161.612 159.865 174.779 156.532 206.779C153.198 238.779 160.365 263.445 178.032 280.779C195.698 298.112 186.198 310.945 149.532 319.279Z" fill="url(#paint1_linear_14_15)"/>
<path d="M189.403 465.146C163.737 490.812 138.07 515.813 112.403 540.146C86.7366 564.479 48.7366 576.813 -1.59677 577.146C-51.9301 577.479 -82.0968 552.479 -92.0968 502.146C-102.097 451.812 -86.2634 417.312 -44.5968 398.646C-2.93011 379.979 27.2366 350.812 45.9032 311.146C64.5699 271.479 94.9032 259.812 136.903 276.146C178.903 292.479 204.57 321.646 213.903 363.646C223.237 405.646 215.07 439.479 189.403 465.146Z" fill="url(#paint2_linear_14_15)"/>
<path d="M596.69 290.352C636.191 351.924 620.776 373.812 550.445 356.013C480.114 338.215 430.497 329.797 401.594 330.759C372.691 331.721 325.964 338.456 261.413 350.962C196.863 363.469 179.039 341.101 207.943 283.858C236.846 226.615 230.102 164.32 187.71 96.9754C145.319 29.6304 159.771 -2.83958 231.065 -0.434399C302.36 1.97078 363.538 -10.0551 414.6 -36.5121C465.663 -62.9691 494.325 -43.7276 500.587 21.2122C506.85 86.1521 514.557 131.851 523.71 158.307C532.862 184.764 557.189 228.779 596.69 290.352Z" fill="url(#paint3_linear_14_15)"/>
</g>
<defs>
<linearGradient id="paint0_linear_14_15" x1="0" y1="0" x2="435.5" y2="633.5" gradientUnits="userSpaceOnUse">
<stop stop-color="#CB9CFD"/>
<stop offset="1" stop-color="#893CD9"/>
</linearGradient>
<linearGradient id="paint1_linear_14_15" x1="197" y1="118.5" x2="-74.5" y2="429.5" gradientUnits="userSpaceOnUse">
<stop stop-color="#A154F2" stop-opacity="0"/>
<stop offset="1" stop-color="#7C00FF"/>
</linearGradient>
<linearGradient id="paint2_linear_14_15" x1="254.5" y1="231.5" x2="-74.5" y2="533" gradientUnits="userSpaceOnUse">
<stop stop-color="#A154F2" stop-opacity="0"/>
<stop offset="1" stop-color="#7C00FF"/>
</linearGradient>
<linearGradient id="paint3_linear_14_15" x1="504.883" y1="-47.9839" x2="178.214" y2="464.019" gradientUnits="userSpaceOnUse">
<stop stop-color="#A154F2"/>
<stop offset="1" stop-color="#A154F2" stop-opacity="0"/>
</linearGradient>
<clipPath id="clip0_14_15">
<rect width="409" height="577" fill="white"/>
</clipPath>
</defs>
</svg>
