<svg width="367" height="412" viewBox="0 0 367 412" fill="none" xmlns="http://www.w3.org/2000/svg">
<path d="M298.532 153.279C261.865 161.612 245.032 174.279 248.032 191.279C251.032 208.279 247.865 227.612 238.532 249.279C229.198 270.945 211.365 292.779 185.032 314.779C158.698 336.779 132.865 338.945 107.532 321.279C82.1984 303.612 80.865 273.445 103.532 230.779C126.198 188.112 114.365 162.445 68.0317 153.779C21.6984 145.112 -0.96831 125.445 0.0316901 94.7788C1.03169 64.1121 14.365 40.1121 40.0317 22.7788C65.6984 5.44543 93.6984 4.27876 124.032 19.2788C154.365 34.2788 178.365 36.4454 196.032 25.7788C213.698 15.1121 237.198 6.94543 266.532 1.27876C295.865 -4.38791 308.865 8.77876 305.532 40.7788C302.198 72.7788 309.365 97.4454 327.032 114.779C344.698 132.112 335.198 144.945 298.532 153.279Z" fill="url(#paint0_linear_12_11)"/>
<path d="M338.403 299.146C312.737 324.812 287.07 349.813 261.403 374.146C235.737 398.479 197.737 410.813 147.403 411.146C97.0699 411.479 66.9032 386.479 56.9032 336.146C46.9032 285.812 62.7366 251.312 104.403 232.646C146.07 213.979 176.237 184.812 194.903 145.146C213.57 105.479 243.903 93.8125 285.903 110.146C327.903 126.479 353.57 155.646 362.903 197.646C372.237 239.646 364.07 273.479 338.403 299.146Z" fill="url(#paint1_linear_12_11)"/>
<defs>
<linearGradient id="paint0_linear_12_11" x1="346" y1="-47.5" x2="74.5" y2="263.5" gradientUnits="userSpaceOnUse">
<stop stop-color="#A154F2" stop-opacity="0"/>
<stop offset="1" stop-color="#7C00FF"/>
</linearGradient>
<linearGradient id="paint1_linear_12_11" x1="403.5" y1="65.5" x2="74.5" y2="367" gradientUnits="userSpaceOnUse">
<stop stop-color="#A154F2" stop-opacity="0"/>
<stop offset="1" stop-color="#7C00FF"/>
</linearGradient>
</defs>
</svg>
