<svg width="454" height="410" viewBox="0 0 454 410" fill="none" xmlns="http://www.w3.org/2000/svg">
<path d="M432.69 338.352C472.191 399.924 456.776 421.812 386.445 404.013C316.114 386.215 266.497 377.797 237.594 378.759C208.691 379.721 161.964 386.456 97.4135 398.962C32.8631 411.469 15.0394 389.101 43.9426 331.858C72.8458 274.615 66.1017 212.32 23.7104 144.975C-18.6809 77.6304 -4.22933 45.1604 67.0652 47.5656C138.36 49.9708 199.538 37.9449 250.6 11.4879C301.663 -14.9691 330.325 4.27236 336.587 69.2122C342.85 134.152 350.557 179.851 359.71 206.307C368.862 232.764 393.189 276.779 432.69 338.352Z" fill="url(#paint0_linear_13_14)"/>
<defs>
<linearGradient id="paint0_linear_13_14" x1="340.883" y1="0.0161216" x2="14.2141" y2="512.019" gradientUnits="userSpaceOnUse">
<stop stop-color="#A154F2"/>
<stop offset="1" stop-color="#A154F2" stop-opacity="0"/>
</linearGradient>
</defs>
</svg>
